<?xml version="1.0" encoding="UTF-8" standalone="no"?>
<!DOCTYPE svg PUBLIC "-//W3C//DTD SVG 1.1//EN"
 "http://www.w3.org/Graphics/SVG/1.1/DTD/svg11.dtd">
<!-- Generated by graphviz version 14.1.5 (20260411.2331)
 -->
<!-- Title: Azure_VM_CICD Pages: 1 -->
<svg width="397pt" height="469pt"
 viewBox="0.00 0.00 397.00 469.00" xmlns="http://www.w3.org/2000/svg" xmlns:xlink="http://www.w3.org/1999/xlink">
<g id="graph0" class="graph" transform="scale(1 1) rotate(0) translate(4 465.11)">
<title>Azure_VM_CICD</title>
<polygon fill="white" stroke="none" points="-4,4 -4,-465.11 392.5,-465.11 392.5,4 -4,4"/>
<g id="clust1" class="cluster">
<title>cluster_azure</title>
<polygon fill="none" stroke="black" stroke-dasharray="5,2" points="43,-155.25 43,-234.5 380,-234.5 380,-155.25 43,-155.25"/>
<text xml:space="preserve" text-anchor="middle" x="211.5" y="-217.2" font-family="Arial" font-size="14.00">Microsoft Azure</text>
</g>
<g id="clust2" class="cluster">
<title>cluster_github</title>
<polygon fill="none" stroke="black" stroke-dasharray="5,2" points="8,-242.5 8,-397.25 178,-397.25 178,-242.5 8,-242.5"/>
<text xml:space="preserve" text-anchor="middle" x="93" y="-379.95" font-family="Arial" font-size="14.00">GitHub CI/CD</text>
</g>
<!-- developer -->
<g id="node1" class="node">
<title>developer</title>
<ellipse fill="lightgreen" stroke="black" cx="93" cy="-433.18" rx="81.32" ry="27.93"/>
<text xml:space="preserve" text-anchor="middle" x="93" y="-435.63" font-family="Arial" font-size="14.00">Developer</text>
<text xml:space="preserve" text-anchor="middle" x="93" y="-419.88" font-family="Arial" font-size="14.00">(Code Changes)</text>
</g>
<!-- github -->
<g id="node2" class="node">
<title>github</title>
<polygon fill="lightblue" stroke="black" points="169.62,-365.5 16.38,-365.5 16.38,-326 169.62,-326 169.62,-365.5"/>
<text xml:space="preserve" text-anchor="middle" x="93" y="-348.2" font-family="Arial" font-size="14.00">GitHub Repository</text>
<text xml:space="preserve" text-anchor="middle" x="93" y="-332.45" font-family="Arial" font-size="14.00">(Node.js Source Code)</text>
</g>
<!-- developer&#45;&gt;github -->
<g id="edge1" class="edge">
<title>developer&#45;&gt;github</title>
<path fill="none" stroke="black" d="M93,-405.15C93,-396.24 93,-386.28 93,-377.14"/>
<polygon fill="black" stroke="black" points="96.5,-377.28 93,-367.28 89.5,-377.28 96.5,-377.28"/>
</g>
<!-- actions -->
<g id="node3" class="node">
<title>actions</title>
<polygon fill="lightblue" stroke="black" points="158.75,-290 45.25,-290 45.25,-250.5 158.75,-250.5 158.75,-290"/>
<text xml:space="preserve" text-anchor="middle" x="102" y="-272.7" font-family="Arial" font-size="14.00">GitHub Actions</text>
<text xml:space="preserve" text-anchor="middle" x="102" y="-256.95" font-family="Arial" font-size="14.00">(CI/CD Pipeline)</text>
</g>
<!-- github&#45;&gt;actions -->
<g id="edge2" class="edge">
<title>github&#45;&gt;actions</title>
<path fill="none" stroke="black" d="M95.32,-325.82C96.22,-318.42 97.29,-309.75 98.29,-301.52"/>
<polygon fill="black" stroke="black" points="101.73,-302.22 99.47,-291.87 94.79,-301.37 101.73,-302.22"/>
</g>
<!-- vm -->
<g id="node4" class="node">
<title>vm</title>
<polygon fill="orange" stroke="black" points="199.38,-202.75 50.62,-202.75 50.62,-163.25 199.38,-163.25 199.38,-202.75"/>
<text xml:space="preserve" text-anchor="middle" x="125" y="-185.45" font-family="Arial" font-size="14.00">Azure Virtual Machine</text>
<text xml:space="preserve" text-anchor="middle" x="125" y="-169.7" font-family="Arial" font-size="14.00">(Ubuntu Linux)</text>
</g>
<!-- actions&#45;&gt;vm -->
<g id="edge3" class="edge">
<title>actions&#45;&gt;vm</title>
<path fill="none" stroke="black" d="M107.1,-250.33C109.97,-239.7 113.62,-226.18 116.87,-214.13"/>
<polygon fill="black" stroke="black" points="120.21,-215.19 119.44,-204.62 113.45,-213.37 120.21,-215.19"/>
</g>
<!-- pm2 -->
<g id="node5" class="node">
<title>pm2</title>
<polygon fill="lightyellow" stroke="black" points="357.38,-363.75 202.62,-363.75 202.62,-327.75 357.38,-327.75 357.38,-363.75"/>
<text xml:space="preserve" text-anchor="middle" x="280" y="-340.32" font-family="Arial" font-size="14.00">PM2 Process Manager</text>
</g>
<!-- vm&#45;&gt;pm2 -->
<g id="edge4" class="edge">
<title>vm&#45;&gt;pm2</title>
<path fill="none" stroke="black" d="M145.1,-203.01C156.42,-214.1 170.54,-228.61 182,-242.5 198.36,-262.33 197.69,-271 215,-290 224.78,-300.74 236.65,-311.31 247.56,-320.26"/>
<polygon fill="black" stroke="black" points="245.25,-322.9 255.24,-326.42 249.63,-317.43 245.25,-322.9"/>
</g>
<!-- nginx -->
<g id="node6" class="node">
<title>nginx</title>
<polygon fill="lightyellow" stroke="black" points="366.38,-288.25 223.62,-288.25 223.62,-252.25 366.38,-252.25 366.38,-288.25"/>
<text xml:space="preserve" text-anchor="middle" x="295" y="-264.82" font-family="Arial" font-size="14.00">Nginx Reverse Proxy</text>
</g>
<!-- pm2&#45;&gt;nginx -->
<g id="edge5" class="edge">
<title>pm2&#45;&gt;nginx</title>
<path fill="none" stroke="black" d="M283.55,-327.33C285.24,-319.09 287.29,-309.04 289.19,-299.74"/>
<polygon fill="black" stroke="black" points="292.6,-300.52 291.17,-290.03 285.74,-299.12 292.6,-300.52"/>
</g>
<!-- dns -->
<g id="node7" class="node">
<title>dns</title>
<polygon fill="lightcyan" stroke="black" points="372.38,-202.75 217.62,-202.75 217.62,-163.25 372.38,-163.25 372.38,-202.75"/>
<text xml:space="preserve" text-anchor="middle" x="295" y="-185.45" font-family="Arial" font-size="14.00">Azure DNS Zone</text>
<text xml:space="preserve" text-anchor="middle" x="295" y="-169.7" font-family="Arial" font-size="14.00">auemeribetech.com.ng</text>
</g>
<!-- nginx&#45;&gt;dns -->
<g id="edge6" class="edge">
<title>nginx&#45;&gt;dns</title>
<path fill="none" stroke="black" d="M295,-252C295,-241.23 295,-227.07 295,-214.46"/>
<polygon fill="black" stroke="black" points="298.5,-214.52 295,-204.52 291.5,-214.52 298.5,-214.52"/>
</g>
<!-- domain -->
<g id="node8" class="node">
<title>domain</title>
<polygon fill="lightcyan" stroke="black" points="388.5,-127.25 201.5,-127.25 201.5,-72 388.5,-72 388.5,-127.25"/>
<text xml:space="preserve" text-anchor="middle" x="295" y="-109.95" font-family="Arial" font-size="14.00">Custom Domain</text>
<text xml:space="preserve" text-anchor="middle" x="295" y="-94.2" font-family="Arial" font-size="14.00">www.auemeribetech.com.ng</text>
<text xml:space="preserve" text-anchor="middle" x="295" y="-78.45" font-family="Arial" font-size="14.00">HTTPS Enabled</text>
</g>
<!-- dns&#45;&gt;domain -->
<g id="edge7" class="edge">
<title>dns&#45;&gt;domain</title>
<path fill="none" stroke="black" d="M295,-163.13C295,-155.9 295,-147.36 295,-138.96"/>
<polygon fill="black" stroke="black" points="298.5,-139.24 295,-129.24 291.5,-139.24 298.5,-139.24"/>
</g>
<!-- users -->
<g id="node9" class="node">
<title>users</title>
<ellipse fill="lightgreen" stroke="black" cx="295" cy="-18" rx="52.56" ry="18"/>
<text xml:space="preserve" text-anchor="middle" x="295" y="-12.57" font-family="Arial" font-size="14.00">End Users</text>
</g>
<!-- domain&#45;&gt;users -->
<g id="edge8" class="edge">
<title>domain&#45;&gt;users</title>
<path fill="none" stroke="black" d="M295,-71.67C295,-63.88 295,-55.35 295,-47.47"/>
<polygon fill="black" stroke="black" points="298.5,-47.71 295,-37.71 291.5,-47.71 298.5,-47.71"/>
</g>
</g>
</svg>
